<svg width="131" height="61" viewBox="0 0 131 61" fill="none" xmlns="http://www.w3.org/2000/svg">
<path d="M30.1777 0.644531C13.538 0.644531 0 14.1826 0 30.8222C0 47.4618 13.538 60.9998 30.1777 60.9998C46.8173 60.9998 60.3553 47.4618 60.3553 30.8222C60.3553 14.1826 46.8173 0.644531 30.1777 0.644531Z" fill="#382E2C"/>
<path d="M30.1776 58.0237C45.2007 58.0237 57.3794 45.8451 57.3794 30.8219C57.3794 15.7988 45.2007 3.62012 30.1776 3.62012C15.1544 3.62012 2.97577 15.7988 2.97577 30.8219C2.97577 45.8451 15.1544 58.0237 30.1776 58.0237Z" fill="#FFC600"/>
<path d="M47.4459 41.0073C47.5297 40.7139 47.404 40.3367 47.1106 40.2529C45.8951 39.8757 45.0149 38.3668 45.3921 36.313C45.7274 34.2593 46.3981 30.99 45.0568 29.3135C45.0568 29.3135 39.7338 26.6729 34.7461 24.242C33.5306 24.242 32.3152 24.1581 31.435 23.9067C31.6865 24.4515 32.1894 26.1281 32.2732 27.1759C30.2614 27.2597 25.9862 25.7928 24.4354 23.9067C25.148 22.1882 25.2318 20.8889 24.9803 19.7991C21.5853 19.1285 17.2263 20.6374 16.3881 24.3677C14.502 22.9846 10.101 22.8588 8.34068 26.0861C6.91562 28.6848 7.87963 33.421 8.13111 34.6784C8.38259 35.8101 8.63408 36.6902 9.05321 37.1513C9.47234 37.6123 10.3525 37.8219 11.1489 37.9057C11.6518 40.3786 14.2924 40.2948 13.5379 42.4743C14.7534 42.0132 15.1726 40.2948 14.6277 39.1631C15.0887 39.1631 15.8851 39.7499 15.6336 40.7978C17.1006 40.5044 16.6395 38.3249 17.4778 37.9896C17.9389 41.2588 21.1662 42.3066 20.2441 44.6119C20.9566 44.6119 21.7949 44.1508 21.8368 43.3545C21.8368 43.3545 23.0942 45.3663 22.717 46.4142L21.2081 48.6356H25.3156L25.7767 46.7076C25.7767 46.7076 24.8127 44.0251 24.8965 42.4743C25.3994 42.3905 26.112 43.0192 26.0701 43.606C27.537 42.5162 25.1899 40.4624 25.7767 38.7859C26.0701 40.2948 27.4951 40.5882 27.6209 41.8037C31.2254 41.0073 35.0814 38.0315 37.6382 38.0315C37.6382 38.0315 39.3566 41.7618 43.8413 41.9294C44.5958 43.2706 45.0987 45.6597 44.8473 46.1208L43.3803 48.5937H47.3621L47.9489 46.8333C47.3621 45.4501 46.9429 42.8934 47.4459 41.0073Z" fill="#382E2C"/>
<path d="M30.7225 8.56641C26.9503 10.5363 26.7826 13.4703 26.7826 13.4703C26.7826 13.4703 28.8364 12.7158 30.6386 12.7577C29.5908 14.3924 28.04 15.4821 28.04 15.4821C28.04 15.4821 30.5967 15.4402 32.3571 16.1946C31.2254 17.2006 29.2136 17.494 29.2136 17.494C29.2136 17.494 29.9261 18.1227 30.5129 19.9249C28.7106 19.9669 27.4532 19.2962 27.4532 19.2962C27.4532 19.2962 27.6209 21.6015 26.615 23.9905C27.2018 23.4876 28.1658 22.2721 28.3334 20.6375C29.6327 21.2662 31.938 20.8889 31.938 20.8889C31.938 20.8889 31.6446 19.2124 30.932 18.3322C32.902 18.0388 35.2072 15.9432 35.2072 15.9432C35.2072 15.9432 33.3211 14.7696 30.8063 14.6439C31.8122 13.8475 32.8601 11.668 32.8601 11.668C32.8601 11.668 30.2614 11.3746 28.6687 12.0452C31.435 8.31493 38.1831 9.82381 39.65 10.7878C38.225 10.9136 35.9617 11.9614 35.333 12.6739C40.656 12.2129 45.8532 16.9491 47.4878 20.3441C44.6796 19.2962 39.3147 21.6015 34.9557 21.0985C36.1712 21.6853 37.4286 23.0684 37.9316 24.0325C36.1293 24.4516 33.1115 24.4935 31.3931 24.0325C31.6446 24.5773 32.1475 26.2539 32.2314 27.3017C30.2195 27.3855 25.9443 25.9186 24.3936 24.0325C26.6988 18.5837 22.4655 17.0329 22.3398 14.2247C22.2979 12.2548 24.8965 9.32085 30.7225 8.56641Z" fill="white"/>
<path d="M14.1666 24.8286C15.5498 26.8824 14.0828 27.8883 12.8254 28.3493C12.6159 28.4332 12.1967 28.6846 12.1967 29.2295C12.1967 29.7744 12.6158 30.1935 13.1607 30.1935C13.3703 30.1935 13.5799 30.1097 13.6637 30.1097C17.3521 28.8942 16.1366 24.9963 14.1666 24.8286Z" fill="white"/>
<path d="M9.51434 31.5767C9.80774 30.7384 10.8975 30.5708 11.4843 30.9899C11.2328 31.6605 10.2688 31.9539 9.51434 31.5767Z" fill="white"/>
<path d="M84.204 11.6675C84.204 14.2662 84.0364 16.4876 79.9289 16.4876C75.8213 16.4876 75.6537 14.2662 75.6537 11.6675C75.6537 11.4161 75.6537 5.46436 75.6537 5.46436H78.5038V10.9131C78.5038 13.5536 78.4619 14.0147 79.9289 14.0147C81.3958 14.0147 81.3539 13.5536 81.3539 10.9131V5.46436H84.204C84.204 5.46436 84.204 11.4161 84.204 11.6675Z" fill="#382E2C"/>
<path d="M129.973 10.1589C129.973 10.4104 129.973 11.4582 129.973 11.7097C129.973 14.3083 129.806 16.5297 125.53 16.5297C121.255 16.5297 121.088 14.3083 121.088 11.7097C121.088 11.4582 121.088 10.4523 121.088 10.1589C121.088 7.56028 121.255 5.33887 125.53 5.33887C129.806 5.33887 129.973 7.51837 129.973 10.1589ZM123.938 10.2008C123.938 10.4104 123.938 11.3744 123.938 11.584C123.938 13.6377 124.022 13.973 125.53 13.973C127.081 13.973 127.123 13.6377 127.123 11.584C127.123 11.3744 127.123 10.4104 127.123 10.1589C127.123 8.10515 127.039 7.76985 125.53 7.76985C124.022 7.81176 123.938 8.14707 123.938 10.2008Z" fill="#382E2C"/>
<path d="M93.0895 38.6183V18.9609H98.203V38.6183H93.0895Z" fill="#382E2C"/>
<path d="M87.1377 56.0963V41.3428H90.9938V56.0963H87.1377Z" fill="#382E2C"/>
<path d="M117.693 47.881C117.693 47.881 115.429 47.881 114.088 47.881C111.28 47.881 111.112 50.773 111.112 50.773H113.921V51.4855C113.837 52.6172 113.208 52.8686 111.909 52.8686C109.813 52.8686 109.729 52.4076 109.729 49.6413C109.729 49.3479 109.729 48.0486 109.729 47.7552C109.729 44.947 109.813 44.5279 111.909 44.5279C113.376 44.5279 113.711 44.8213 113.795 46.2463L117.483 44.9051C117.106 42.7256 115.89 41.1748 111.909 41.1748C106.125 41.1748 105.873 44.1507 105.873 47.6714C105.873 48.0067 105.873 49.3898 105.873 49.7251C105.873 53.2459 106.125 56.2217 111.909 56.2217C115.429 56.2217 116.854 54.9643 117.399 53.204C117.818 51.8627 117.274 49.7251 117.693 47.881Z" fill="#382E2C"/>
<path d="M100.424 41.3428V48.3423L97.0714 41.3428H92.3771C92.3771 41.3428 92.9639 42.3068 92.9639 43.9833V56.0963H96.8199V49.0968L99.7957 55.2999C100.047 55.8448 100.424 56.0963 101.095 56.0963H104.28V41.3428H100.424Z" fill="#382E2C"/>
<path d="M124.441 46.791C122.974 46.5815 122.639 46.33 122.639 45.7013C122.639 44.9469 123.058 44.4858 124.189 44.4858C125.405 44.4858 125.698 44.6535 126.118 45.7851L129.764 44.4439C129.345 42.0967 127.878 41.0908 124.315 41.0908C120.04 41.0908 118.825 42.8931 118.825 45.6594C118.825 48.5933 120.124 49.8507 124.734 50.4794C125.824 50.6052 126.285 50.8986 126.285 51.6949C126.285 52.4913 125.95 52.9104 124.692 52.9104C123.351 52.9104 123.142 52.5751 122.764 51.4434L118.867 52.8685C119.369 55.2995 121.088 56.3054 124.399 56.3054C128.548 56.3054 130.099 54.3774 130.099 51.7787C130.099 48.7191 128.423 47.4197 124.441 46.791Z" fill="#382E2C"/>
<path d="M130.476 27.5532C130.476 22.9427 130.141 18.9609 122.303 18.9609H114.801C114.801 18.9609 115.304 19.3801 115.304 22.0206V38.6183H122.303C130.183 38.6183 130.476 34.6366 130.476 30.068C130.476 29.6489 130.476 29.2297 130.476 28.8106C130.476 28.3915 130.476 27.9723 130.476 27.5532ZM125.363 30.1937C125.363 33.6725 125.195 34.1336 122.303 34.1336H120.417V24.9965C120.417 23.8648 119.746 23.4457 119.746 23.4457H122.303C125.237 23.4457 125.363 23.9486 125.363 27.4274C125.363 27.8466 125.363 29.7746 125.363 30.1937Z" fill="#382E2C"/>
<path d="M109.226 34.1336H105.957V18.9609H100.844V38.6183H113.585V33.2115C113.585 33.2115 112.495 34.1336 109.226 34.1336Z" fill="#382E2C"/>
<path d="M117.777 13.889H115.974V5.46436H113.124V16.3618H120.208V13.3441C120.208 13.3441 119.621 13.889 117.777 13.889Z" fill="#382E2C"/>
<path d="M72.4682 10.5363C73.4322 10.3267 73.9352 9.73993 73.9352 8.02148C73.9352 5.67433 72.6359 5.42285 70.2049 5.42285H65.5525C65.5525 5.42285 66.0135 5.96773 66.0135 7.64426V16.3203H70.0372C72.8035 16.3203 74.2705 16.0689 74.2705 13.3864C74.2705 11.4165 73.6418 10.7459 72.4682 10.5363ZM68.5283 7.85383H69.5762C70.8336 7.85383 71.1689 7.85383 71.1689 8.73401C71.1689 9.44654 70.9593 9.57228 70.163 9.61419H68.8217V8.60827C68.8217 8.02148 68.5283 7.85383 68.5283 7.85383ZM69.4504 13.9732H68.8637V11.668H70.163C71.1689 11.668 71.4204 11.7937 71.4204 12.8415C71.4204 14.057 71.0431 13.9732 69.4504 13.9732Z" fill="#382E2C"/>
<path d="M108.514 5.46436H104.155C104.155 5.46436 104.532 6.38645 104.322 7.05707L101.43 16.3618H104.364L105.077 13.7632H108.22L108.933 16.3618H111.867L108.514 5.46436ZM105.706 11.4161L106.67 8.06299L107.634 11.4161H105.706Z" fill="#382E2C"/>
<path d="M86.1319 18.9609L83.6171 32.499L81.4795 20.3441C81.2699 19.2543 80.4736 19.0029 79.8449 19.0029H75.7793C76.4918 20.3022 75.5278 21.811 73.3902 32.5409L70.8754 19.0029H64.798C64.798 19.0029 65.8039 19.9669 66.223 21.6015L69.618 38.6602H75.1506C76.1984 38.6602 76.7852 37.6962 76.9529 36.8999L78.5456 28.601L80.5155 38.7022H86.09C87.0121 38.7022 87.6408 37.9477 87.8084 37.0675L91.3711 19.0448H86.1319V18.9609Z" fill="#382E2C"/>
<path d="M81.8567 41.3428L79.9706 51.4858L78.3779 42.3487C78.2521 41.5104 77.6234 41.3428 77.1624 41.3428H74.1027C74.6476 42.3487 73.8931 43.4384 72.3004 51.4858L70.4143 41.3428H65.8458C65.8458 41.3428 66.6002 42.0553 66.8936 43.3127L69.4084 56.0963H73.5578C74.3542 56.0963 74.7733 55.3838 74.8991 54.7551L76.1146 48.51L77.5815 56.0963H81.7729C82.4435 56.0963 82.9464 55.5095 83.0722 54.8808L85.7546 41.3428H81.8567Z" fill="#382E2C"/>
<path d="M94.85 5.46436V16.3618H97.7002V12.2543H99.209C100.257 12.2543 100.676 11.6675 101.179 9.78144H97.6582V7.93725H100.802C101.724 7.93725 102.143 8.31447 102.143 8.31447V5.46436H94.85Z" fill="#382E2C"/>
<path d="M86.0061 5.46436V16.3618H88.8562V12.2543H90.3651C91.4129 12.2543 91.8321 11.6675 92.335 9.78144H88.8562V7.93725H91.9997C92.9218 7.93725 93.3409 8.31447 93.3409 8.31447V5.46436H86.0061Z" fill="#382E2C"/>
</svg>
